<svg xmlns="http://www.w3.org/2000/svg" aria-hidden="true" style="position:absolute;width:0;height:0;overflow:hidden"><defs>
<symbol id="icon-film" viewBox="0 0 32 32"><path d="M29 0H3a1 1 0 0 0-1 1v30a1 1 0 0 0 1 1h26a1 1 0 0 0 1-1V1a1 1 0 0 0-1-1zM5 28a1 1 0 1 1 0-2 1 1 0 0 1 0 2zm0-4a1 1 0 1 1 0-2 1 1 0 0 1 0 2zm0-4a1 1 0 1 1 0-2 1 1 0 0 1 0 2zm0-4a1 1 0 1 1 0-2 1 1 0 0 1 0 2zm0-4a1 1 0 1 1 0-2 1 1 0 0 1 0 2zm0-4a1 1 0 1 1 0-2 1 1 0 0 1 0 2zm0-4a1 1 0 1 1 0-2 1 1 0 0 1 0 2zm19 25a1 1 0 0 1-1 1H9a1 1 0 0 1-1-1V19a1 1 0 0 1 1-1h14a1 1 0 0 1 1 1v10zm0-14a1 1 0 0 1-1 1H9a1 1 0 0 1-1-1V3a1 1 0 0 1 1-1h14a1 1 0 0 1 1 1v12zm3 13a1 1 0 1 1 0-2 1 1 0 1 1 0 2zm0-4a1 1 0 1 1 0-2 1 1 0 1 1 0 2zm0-4a1 1 0 1 1 0-2 1 1 0 1 1 0 2zm0-4a1 1 0 1 1 0-2 1 1 0 0 1 0 2zm0-4a1 1 0 1 1 0-2 1 1 0 0 1 0 2zm0-4a1 1 0 1 1 0-2 1 1 0 0 1 0 2zm0-4a1 1 0 1 1 0-2 1 1 0 0 1 0 2z"/></symbol>
<symbol id="icon-search" viewBox="0 0 32 32"><path d="m31.008 27.231-7.58-6.447c-.784-.705-1.622-1.029-2.299-.998a11.954 11.954 0 0 0 2.87-7.787c0-6.627-5.373-12-12-12s-12 5.373-12 12 5.373 12 12 12c2.972 0 5.691-1.081 7.787-2.87-.031.677.293 1.515.998 2.299l6.447 7.58c1.104 1.226 2.907 1.33 4.007.23s.997-2.903-.23-4.007zM12 20a8 8 0 1 1 0-16 8 8 0 0 1 0 16z"/></symbol>
<symbol id="icon-heart" viewBox="0 0 32 32"><path d="M23.6 2c-3.363 0-6.258 2.736-7.599 5.594C14.659 4.736 11.764 2 8.4 2 3.763 2 0 5.764 0 10.401c0 9.433 9.516 11.906 16.001 21.232C22.131 22.365 32 19.533 32 10.401 32 5.764 28.237 2 23.6 2z"/></symbol>
<symbol id="icon-close" viewBox="0 0 32 32"><path d="M31.708 25.708 22 16l9.708-9.708a1 1 0 0 0 0-1.414L27.122.292a1 1 0 0 0-1.414-.001L16 9.999 6.292.291a.998.998 0 0 0-1.414.001L.292 4.878a1 1 0 0 0 0 1.414L10 16 .292 25.708a.999.999 0 0 0 0 1.414l4.586 4.586a1 1 0 0 0 1.414 0L16 22l9.708 9.708a1 1 0 0 0 1.414 0l4.586-4.586a.999.999 0 0 0 0-1.414z"/></symbol></defs></svg>